# Blender 3.3.1
# www.blender.org
mtllib cone.mtl
o 円錐
v 0.000000 -0.628918 -0.713767
v 0.139249 -0.628918 -0.700052
v 0.273147 -0.628918 -0.659435
v 0.396548 -0.628918 -0.593476
v 0.504710 -0.628918 -0.504710
v 0.593476 -0.628918 -0.396548
v 0.659435 -0.628918 -0.273147
v 0.700052 -0.628918 -0.139249
v 0.713767 -0.628918 0.000000
v 0.700052 -0.628918 0.139249
v 0.659435 -0.628918 0.273147
v 0.593476 -0.628918 0.396548
v 0.504710 -0.628918 0.504710
v 0.396548 -0.628918 0.593476
v 0.273147 -0.628918 0.659435
v 0.139249 -0.628918 0.700052
v 0.000000 -0.628918 0.713767
v -0.139249 -0.628918 0.700052
v -0.273147 -0.628918 0.659435
v -0.396548 -0.628918 0.593476
v -0.504710 -0.628918 0.504710
v -0.593476 -0.628918 0.396548
v -0.659435 -0.628918 0.273147
v -0.700052 -0.628918 0.139249
v -0.713767 -0.628918 0.000000
v -0.700052 -0.628918 -0.139249
v -0.659435 -0.628918 -0.273147
v -0.593476 -0.628918 -0.396548
v -0.504710 -0.628918 -0.504710
v -0.396548 -0.628918 -0.593476
v -0.273147 -0.628918 -0.659435
v -0.139249 -0.628918 -0.700052
v 0.000000 2.118428 0.000000
v -0.933558 -0.633798 0.925866
v -0.933558 -0.481911 0.925866
v -0.933558 -0.633798 -0.925866
v -0.933558 -0.481911 -0.925866
v 0.933558 -0.633798 0.925866
v 0.933558 -0.481911 0.925866
v 0.933558 -0.633798 -0.925866
v 0.933558 -0.481911 -0.925866
vn 0.0949 0.2503 -0.9635
vn 0.2810 0.2503 -0.9265
vn 0.4564 0.2503 -0.8538
vn 0.6142 0.2503 -0.7484
vn 0.7484 0.2503 -0.6142
vn 0.8538 0.2503 -0.4564
vn 0.9265 0.2503 -0.2810
vn 0.9635 0.2503 -0.0949
vn 0.9635 0.2503 0.0949
vn 0.9265 0.2503 0.2810
vn 0.8538 0.2503 0.4564
vn 0.7484 0.2503 0.6142
vn 0.6142 0.2503 0.7484
vn 0.4564 0.2503 0.8538
vn 0.2810 0.2503 0.9265
vn 0.0949 0.2503 0.9635
vn -0.0949 0.2503 0.9635
vn -0.2810 0.2503 0.9265
vn -0.4564 0.2503 0.8538
vn -0.6142 0.2503 0.7484
vn -0.7484 0.2503 0.6142
vn -0.8538 0.2503 0.4564
vn -0.9265 0.2503 0.2810
vn -0.9635 0.2503 0.0949
vn -0.9635 0.2503 -0.0949
vn -0.9265 0.2503 -0.2810
vn -0.8538 0.2503 -0.4564
vn -0.7484 0.2503 -0.6142
vn -0.6142 0.2503 -0.7484
vn -0.4564 0.2503 -0.8538
vn -0.0000 -1.0000 -0.0000
vn -0.2810 0.2503 -0.9265
vn -0.0949 0.2503 -0.9635
vn -1.0000 -0.0000 -0.0000
vn -0.0000 -0.0000 -1.0000
vn 1.0000 -0.0000 -0.0000
vn -0.0000 -0.0000 1.0000
vn -0.0000 1.0000 -0.0000
vt 0.750000 0.490000
vt 0.250000 0.490000
vt 0.296822 0.485388
vt 0.796822 0.485388
vt 0.341844 0.471731
vt 0.841844 0.471731
vt 0.383337 0.449553
vt 0.883337 0.449553
vt 0.419706 0.419706
vt 0.919706 0.419706
vt 0.449553 0.383337
vt 0.949553 0.383337
vt 0.471731 0.341844
vt 0.971731 0.341844
vt 0.485388 0.296822
vt 0.985388 0.296822
vt 0.490000 0.250000
vt 0.990000 0.250000
vt 0.485388 0.203178
vt 0.985388 0.203178
vt 0.471731 0.158156
vt 0.971731 0.158156
vt 0.449553 0.116663
vt 0.949553 0.116663
vt 0.419706 0.080294
vt 0.919706 0.080294
vt 0.383337 0.050447
vt 0.883337 0.050447
vt 0.341844 0.028269
vt 0.841844 0.028269
vt 0.296822 0.014612
vt 0.796822 0.014612
vt 0.250000 0.010000
vt 0.750000 0.010000
vt 0.203178 0.014612
vt 0.703178 0.014612
vt 0.158156 0.028269
vt 0.658156 0.028269
vt 0.116663 0.050447
vt 0.616663 0.050447
vt 0.080294 0.080294
vt 0.580294 0.080294
vt 0.050447 0.116663
vt 0.550447 0.116663
vt 0.028269 0.158156
vt 0.528269 0.158156
vt 0.014612 0.203178
vt 0.514612 0.203178
vt 0.010000 0.250000
vt 0.510000 0.250000
vt 0.014612 0.296822
vt 0.514612 0.296822
vt 0.028269 0.341844
vt 0.528269 0.341844
vt 0.050447 0.383337
vt 0.550447 0.383337
vt 0.080294 0.419706
vt 0.580294 0.419706
vt 0.116663 0.449553
vt 0.616663 0.449553
vt 0.658156 0.471731
vt 0.158156 0.471731
vt 0.703178 0.485388
vt 0.203178 0.485388
vt 0.250000 0.250000
vt 0.375000 0.000000
vt 0.375000 1.000000
vt 0.125000 0.750000
vt 0.625000 0.000000
vt 0.625000 1.000000
vt 0.875000 0.750000
vt 0.375000 0.250000
vt 0.125000 0.500000
vt 0.625000 0.250000
vt 0.875000 0.500000
vt 0.375000 0.750000
vt 0.625000 0.750000
vt 0.375000 0.500000
vt 0.625000 0.500000
s 0
usemtl マテリアル
f 1/2/1 33/65/1 2/3/1
f 2/3/2 33/65/2 3/5/2
f 3/5/3 33/65/3 4/7/3
f 4/7/4 33/65/4 5/9/4
f 5/9/5 33/65/5 6/11/5
f 6/11/6 33/65/6 7/13/6
f 7/13/7 33/65/7 8/15/7
f 8/15/8 33/65/8 9/17/8
f 9/17/9 33/65/9 10/19/9
f 10/19/10 33/65/10 11/21/10
f 11/21/11 33/65/11 12/23/11
f 12/23/12 33/65/12 13/25/12
f 13/25/13 33/65/13 14/27/13
f 14/27/14 33/65/14 15/29/14
f 15/29/15 33/65/15 16/31/15
f 16/31/16 33/65/16 17/33/16
f 17/33/17 33/65/17 18/35/17
f 18/35/18 33/65/18 19/37/18
f 19/37/19 33/65/19 20/39/19
f 20/39/20 33/65/20 21/41/20
f 21/41/21 33/65/21 22/43/21
f 22/43/22 33/65/22 23/45/22
f 23/45/23 33/65/23 24/47/23
f 24/47/24 33/65/24 25/49/24
f 25/49/25 33/65/25 26/51/25
f 26/51/26 33/65/26 27/53/26
f 27/53/27 33/65/27 28/55/27
f 28/55/28 33/65/28 29/57/28
f 29/57/29 33/65/29 30/59/29
f 30/59/30 33/65/30 31/62/30
f 1/1/31 2/4/31 3/6/31 4/8/31 5/10/31 6/12/31 7/14/31 8/16/31 9/18/31 10/20/31 11/22/31 12/24/31 13/26/31 14/28/31 15/30/31 16/32/31 17/34/31 18/36/31 19/38/31 20/40/31 21/42/31 22/44/31 23/46/31 24/48/31 25/50/31 26/52/31 27/54/31 28/56/31 29/58/31 30/60/31 31/61/31 32/63/31
f 31/62/32 33/65/32 32/64/32
f 32/64/33 33/65/33 1/2/33
f 34/66/34 35/69/34 37/74/34 36/72/34
f 36/72/35 37/74/35 41/79/35 40/78/35
f 40/78/36 41/79/36 39/77/36 38/76/36
f 38/76/37 39/77/37 35/70/37 34/67/37
f 36/73/31 40/78/31 38/76/31 34/68/31
f 41/79/38 37/75/38 35/71/38 39/77/38
