# Blender 3.3.1
# www.blender.org
mtllib kanban.mtl
o Cube
v -0.034836 0.619595 -0.901942
v -0.034836 -0.619595 -0.901942
v -0.034836 0.619595 0.901942
v -0.034836 -0.619595 0.901942
v 0.034836 0.619595 -0.901942
v 0.034836 -0.619595 -0.901942
v 0.034836 0.619595 0.901942
v 0.034836 -0.619595 0.901942
v -0.031544 -1.377372 -0.889213
v -0.031544 0.622629 -0.889213
v -0.031544 -1.377372 -0.970298
v -0.031544 0.622629 -0.970298
v 0.031544 -1.377372 -0.889213
v 0.031544 0.622629 -0.889213
v 0.031544 -1.377372 -0.970298
v 0.031544 0.622629 -0.970298
v -0.031544 -1.382841 0.981236
v -0.031544 0.617159 0.981236
v -0.031544 -1.382841 0.900152
v -0.031544 0.617159 0.900152
v 0.031544 -1.382841 0.981236
v 0.031544 0.617159 0.981236
v 0.031544 -1.382841 0.900152
v 0.031544 0.617159 0.900152
vn -0.0000 1.0000 -0.0000
vn -0.0000 -0.0000 1.0000
vn 1.0000 -0.0000 -0.0000
vn -0.0000 -1.0000 -0.0000
vn -1.0000 -0.0000 -0.0000
vn -0.0000 -0.0000 -1.0000
vt 0.625000 0.500000
vt 0.375000 0.500000
vt 0.625000 0.750000
vt 0.375000 0.750000
vt 0.875000 0.500000
vt 0.625000 0.250000
vt 0.125000 0.500000
vt 0.375000 0.250000
vt 0.875000 0.750000
vt 0.625000 1.000000
vt 0.625000 0.000000
vt 0.375000 1.000000
vt 0.375000 0.000000
vt 0.125000 0.750000
vt 0.000000 0.000000
vt 0.000000 0.000000
vt 0.000000 0.000000
vt 0.000000 0.000000
vt 0.000000 0.000000
vt 0.000000 0.000000
vt 0.000000 0.000000
vt 0.000000 0.000000
vt 0.000000 0.000000
vt 0.000000 0.000000
vt 0.000000 0.000000
vt 0.000000 0.000000
vt 0.000000 0.000000
vt 0.000000 0.000000
vt 0.000000 0.000000
vt 0.000000 0.000000
s 0
usemtl Material
f 1/1/1 3/3/1 7/9/1 5/5/1
f 4/4/2 8/12/2 7/10/2 3/3/2
f 8/13/3 6/8/3 5/6/3 7/11/3
f 6/7/4 8/14/4 4/4/4 2/2/4
f 2/2/5 4/4/5 3/3/5 1/1/5
f 6/8/6 2/2/6 1/1/6 5/6/6
f 9/15/3 11/17/3 12/18/3 10/16/3
f 11/17/2 15/21/2 16/22/2 12/18/2
f 15/21/5 13/19/5 14/20/5 16/22/5
f 13/19/6 9/15/6 10/16/6 14/20/6
f 11/17/1 9/15/1 13/19/1 15/21/1
f 16/22/4 14/20/4 10/16/4 12/18/4
f 17/23/3 19/25/3 20/26/3 18/24/3
f 19/25/2 23/29/2 24/30/2 20/26/2
f 23/29/5 21/27/5 22/28/5 24/30/5
f 21/27/6 17/23/6 18/24/6 22/28/6
f 19/25/1 17/23/1 21/27/1 23/29/1
f 24/30/4 22/28/4 18/24/4 20/26/4
