# Blender 3.3.1
# www.blender.org
mtllib roof2.mtl
o 立方体.001
v -0.998845 0.529375 2.592415
v -0.992330 1.033168 1.005195
v -0.998845 0.529375 1.001135
v 0.522529 0.529375 2.592415
v 0.529044 1.033168 1.005195
v 0.522529 0.529375 1.001135
vn -0.9999 0.0129 -0.0000
vn -0.0000 0.0081 -1.0000
vn 0.9999 -0.0129 -0.0000
vn -0.0000 0.9531 0.3025
vn -0.0000 -1.0000 -0.0000
vt 0.375000 0.000000
vt 0.375000 1.000000
vt 0.125000 0.750000
vt 0.625000 0.250000
vt 0.625000 1.000000
vt 0.375000 0.250000
vt 0.125000 0.500000
vt 0.375000 0.750000
vt 0.625000 0.500000
vt 0.625000 0.750000
vt 0.375000 0.500000
s 0
usemtl マテリアル.001
f 1/1/1 2/4/1 3/6/1
f 3/6/2 2/4/2 5/9/2 6/11/2
f 6/11/3 5/10/3 4/8/3
f 4/8/4 5/10/4 2/5/4 1/2/4
f 3/7/5 6/11/5 4/8/5 1/3/5
